<svg width="31" height="21" viewBox="0 0 31 21" fill="none" xmlns="http://www.w3.org/2000/svg">
<path fill-rule="evenodd" clip-rule="evenodd" d="M0 20.6152V0H9.41576C12.4401 0 14.8918 2.4815 14.8918 5.54257C14.8918 7.48774 14.3009 8.69268 12.1341 9.9288C14.727 11.1246 15.4471 12.7819 15.4471 15.0936C15.4471 18.2207 12.7024 20.6152 9.61271 20.6152H0ZM3.98434 3.4125V8.3697H8.6476C8.6476 8.3697 10.9141 8.3697 10.9141 5.8911C10.9141 3.4125 8.6476 3.4125 8.6476 3.4125H3.98434ZM3.98434 17.1239V11.7712H8.98627C9.79388 11.7712 11.4872 12.1931 11.4872 14.7244C11.4872 16.6018 9.81993 17.1063 8.98627 17.1239H3.98434Z" fill="white"/>
<path fill-rule="evenodd" clip-rule="evenodd" d="M23.966 5.68015C21.1003 5.68015 16.8539 7.76323 16.8539 13.3005C16.8539 16.6723 18.6775 21 24.1484 21C28.5251 21 30.5398 17.7479 31 16.1219H26.8838C26.6754 16.8602 25.8678 17.6776 24.1484 17.6776C21.6474 17.6776 20.7617 15.5154 20.6314 14.4344H31V13.3005C31 7.76323 26.8317 5.68015 23.966 5.68015ZM23.966 8.84432C21.6318 8.84432 20.7703 10.7956 20.6314 11.7712H26.8838C26.8838 10.7956 26.3003 8.84432 23.966 8.84432Z" fill="white"/>
<path d="M18.9901 1.17122V3.72892H28.8117V1.17122H18.9901Z" fill="white"/>
</svg>
