<svg width="44" height="44" viewBox="0 0 44 44" fill="none" xmlns="http://www.w3.org/2000/svg">
<path fill-rule="evenodd" clip-rule="evenodd" d="M22 22C22 18.9624 24.4624 16.5 27.5 16.5C30.5376 16.5 33 18.9624 33 22C33 25.0376 30.5376 27.5 27.5 27.5C24.4624 27.5 22 25.0376 22 22Z" fill="#1ABCFE"/>
<path fill-rule="evenodd" clip-rule="evenodd" d="M11 33C11 29.9624 13.4624 27.5 16.5 27.5H22V33C22 36.0376 19.5376 38.5 16.5 38.5C13.4624 38.5 11 36.0376 11 33Z" fill="#0ACF83"/>
<path fill-rule="evenodd" clip-rule="evenodd" d="M22 5.5V16.5H27.5C30.5376 16.5 33 14.0376 33 11C33 7.96243 30.5376 5.5 27.5 5.5H22Z" fill="#FF7262"/>
<path fill-rule="evenodd" clip-rule="evenodd" d="M11 11C11 14.0376 13.4624 16.5 16.5 16.5H22V5.5H16.5C13.4624 5.5 11 7.96243 11 11Z" fill="#F24E1E"/>
<path fill-rule="evenodd" clip-rule="evenodd" d="M11 22C11 25.0376 13.4624 27.5 16.5 27.5H22V16.5H16.5C13.4624 16.5 11 18.9624 11 22Z" fill="#A259FF"/>
</svg>
