<svg width="44" height="45" viewBox="0 0 44 45" fill="none" xmlns="http://www.w3.org/2000/svg">
<mask id="mask0_22_86" style="mask-type:alpha" maskUnits="userSpaceOnUse" x="1" y="1" width="43" height="43">
<rect x="22.2881" y="0.972168" width="30.7049" height="30.7049" rx="2" transform="rotate(45 22.2881 0.972168)" fill="#EE513B"/>
</mask>
<g mask="url(#mask0_22_86)">
<rect x="0.57666" y="0.972168" width="45.358" height="43.8949" fill="#EE513B"/>
<path d="M16.2553 6.82446L14.4771 8.6027L19.0698 13.1954C18.884 13.594 18.7803 14.0386 18.7803 14.5073C18.7803 15.8382 19.6165 16.9738 20.7921 17.4173V28.6523C19.6165 29.0958 18.7803 30.2314 18.7803 31.5623C18.7803 33.2795 20.1723 34.6715 21.8895 34.6715C23.6067 34.6715 24.9987 33.2795 24.9987 31.5623C24.9987 30.3557 24.3114 29.3096 23.3069 28.7942V17.4326L27.6972 21.8228C27.5205 22.2133 27.4221 22.6469 27.4221 23.1034C27.4221 24.8206 28.8141 26.2126 30.5313 26.2126C32.2485 26.2126 33.6405 24.8206 33.6405 23.1034C33.6405 21.3862 32.2485 19.9942 30.5313 19.9942C30.1976 19.9942 29.8762 20.0467 29.5749 20.1441L24.8598 15.429C24.9501 15.1378 24.9987 14.8282 24.9987 14.5073C24.9987 12.7901 23.6067 11.3981 21.8895 11.3981C21.5686 11.3981 21.259 11.4467 20.9678 11.537L16.2553 6.82446Z" fill="white"/>
</g>
</svg>
