<svg width="56" height="56" viewBox="0 0 56 56" fill="none" xmlns="http://www.w3.org/2000/svg">
<mask id="mask0_26_125" style="mask-type:alpha" maskUnits="userSpaceOnUse" x="1" y="0" width="55" height="55">
<rect x="28.2598" y="0.150391" width="39.1508" height="39.1508" rx="2" transform="rotate(45 28.2598 0.150391)" fill="#EE513B"/>
</mask>
<g mask="url(#mask0_26_125)">
<rect x="0.576172" y="0.150391" width="57.8344" height="55.9688" fill="#EE513B"/>
<path d="M20.5672 7.61255L18.2998 9.87992L24.1558 15.7359C23.919 16.2442 23.7867 16.811 23.7867 17.4087C23.7867 19.1057 24.8529 20.5536 26.3519 21.1192V35.4444C24.8529 36.01 23.7867 37.4579 23.7867 39.1549C23.7867 41.3444 25.5616 43.1194 27.7512 43.1194C29.9407 43.1194 31.7156 41.3444 31.7156 39.1549C31.7156 37.6164 30.8392 36.2826 29.5585 35.6254V21.1386L35.1563 26.7365C34.931 27.2344 34.8056 27.7872 34.8056 28.3692C34.8056 30.5588 36.5805 32.3337 38.77 32.3337C40.9595 32.3337 42.7345 30.5588 42.7345 28.3692C42.7345 26.1797 40.9595 24.4048 38.77 24.4048C38.3445 24.4048 37.9347 24.4718 37.5505 24.5959L31.5385 18.5839C31.6536 18.2126 31.7156 17.8179 31.7156 17.4087C31.7156 15.2192 29.9407 13.4442 27.7512 13.4442C27.342 13.4442 26.9473 13.5062 26.5759 13.6213L20.5672 7.61255Z" fill="white"/>
</g>
</svg>
