<svg width="43" height="44" viewBox="0 0 43 44" fill="none" xmlns="http://www.w3.org/2000/svg">
<path d="M2.6875 16.6833C2.6875 11.8062 2.6875 9.36765 3.61508 7.50483C4.431 5.86625 5.73293 4.53405 7.33427 3.69915C9.15475 2.75 11.5379 2.75 16.3042 2.75H26.6958C31.4621 2.75 33.8453 2.75 35.6657 3.69915C37.2671 4.53405 38.569 5.86625 39.3849 7.50483C40.3125 9.36765 40.3125 11.8062 40.3125 16.6833V27.3167C40.3125 32.1938 40.3125 34.6324 39.3849 36.4952C38.569 38.1337 37.2671 39.466 35.6657 40.3008C33.8453 41.25 31.4621 41.25 26.6958 41.25H16.3042C11.5379 41.25 9.15475 41.25 7.33427 40.3008C5.73293 39.466 4.431 38.1337 3.61508 36.4952C2.6875 34.6324 2.6875 32.1938 2.6875 27.3167V16.6833Z" fill="#330000"/>
<path d="M20.9201 26.9449H15.0896L13.9033 30.8123C13.8704 30.956 13.7411 31.0578 13.6004 31.0507H10.6474C10.4789 31.0507 10.4201 30.9536 10.4707 30.7593L15.5187 15.5015C15.5692 15.3426 15.6197 15.1616 15.6701 14.9584C15.7362 14.605 15.77 14.2458 15.7711 13.8857C15.7566 13.7793 15.848 13.6853 15.9478 13.7002H19.9609C20.0785 13.7002 20.1458 13.7444 20.1628 13.8327L25.8924 30.7858C25.9429 30.9625 25.8924 31.0508 25.7409 31.0507H22.4597C22.3446 31.0641 22.2347 30.9834 22.2073 30.8653L20.9201 26.9449ZM15.9982 23.6072H19.9862C19.331 21.3162 18.5915 19.0553 17.9922 16.7465C17.3456 19.0592 16.6402 21.3627 15.9982 23.6072Z" fill="#FF9A00"/>
<path d="M29.2995 16.508C29.042 16.5189 28.7853 16.4726 28.5461 16.3721C28.3069 16.2717 28.0906 16.1194 27.9113 15.9252C27.7325 15.7226 27.5936 15.4849 27.5026 15.2258C27.4117 14.9667 27.3704 14.6913 27.3812 14.4154C27.372 14.1422 27.4179 13.87 27.5157 13.6167C27.6136 13.3634 27.7612 13.1345 27.9491 12.9452C28.1351 12.7578 28.3547 12.611 28.5952 12.5132C28.8356 12.4155 29.0922 12.3687 29.3499 12.3757C29.9557 12.3757 30.4311 12.5655 30.776 12.9452C30.9501 13.1425 31.0855 13.3739 31.1742 13.6262C31.263 13.8785 31.3035 14.1466 31.2934 14.4154C31.304 14.6923 31.2614 14.9687 31.1681 15.2281C31.0749 15.4875 30.933 15.7246 30.7508 15.9252C30.5603 16.1223 30.333 16.2758 30.0833 16.3761C29.8335 16.4764 29.5666 16.5213 29.2995 16.508ZM27.5579 30.7857V18.1238C27.5579 17.9649 27.6249 17.8854 27.7598 17.8854H30.8644C30.9989 17.8854 31.0662 17.9649 31.0663 18.1238V30.7857C31.0663 30.9625 30.999 31.0508 30.8644 31.0506H27.7851C27.6336 31.0506 27.5579 30.9623 27.5579 30.7857Z" fill="#FF9A00"/>
</svg>
