<svg width="39" height="39" viewBox="0 0 39 39" fill="none" xmlns="http://www.w3.org/2000/svg">
<g clip-path="url(#clip0_131_148)">
<path d="M9.86152 30.4198L0.445801 22.9541L5.1258 14.2627L18.5529 19.4998L9.86152 30.4198Z" fill="url(#paint0_linear_131_148)"/>
<path d="M39.0001 10.4185L38.2758 32.9828L23.2887 38.9999L14.2629 33.2057L27.4672 19.4999L21.6729 6.85279L26.8544 0.612793L39.0001 10.4185Z" fill="url(#paint1_linear_131_148)"/>
<path d="M39 10.4185L27.1329 24.4585L21.6729 6.85279L26.8543 0.612793L39 10.4185Z" fill="url(#paint2_linear_131_148)"/>
<path d="M18.7757 32.37L3.12 38.0529L5.62714 29.25L8.91429 18.4414L0 15.4329L5.62714 0L17.8843 1.50429L29.9186 15.2657L18.7757 32.37Z" fill="url(#paint3_linear_131_148)"/>
<path d="M7.63281 7.52148H31.7014V31.5901H7.63281V7.52148Z" fill="black"/>
<path d="M9.86133 27.0771H18.887V28.5814H9.86133V27.0771Z" fill="white"/>
<path d="M16.38 12.4799V10.6414H11.3657V12.4799H12.8143V18.7756H11.3657V20.6142H16.38V18.7756H14.9872V12.4799H16.38Z" fill="white"/>
<path d="M21.1714 20.7814C20.3914 20.7814 19.7228 20.6142 19.2214 20.3356C18.7199 20.0571 18.2742 19.6671 17.9399 19.2771L19.3328 17.7171C19.6114 18.0514 19.8899 18.2742 20.1685 18.4414C20.4471 18.6085 20.7814 18.7199 21.1157 18.7199C21.5057 18.7199 21.8399 18.6085 22.1185 18.3299C22.3414 18.0514 22.4528 17.6614 22.4528 17.0485V10.6414H24.6814V17.1599C24.6814 17.7728 24.6257 18.2742 24.4585 18.7199C24.2914 19.1656 24.0685 19.4999 23.7342 19.8342C23.4557 20.1128 23.0657 20.3914 22.6199 20.5028C22.1742 20.6699 21.7285 20.7814 21.1714 20.7814Z" fill="white"/>
</g>
<defs>
<linearGradient id="paint0_linear_131_148" x1="0.440229" y1="22.3351" x2="18.5624" y2="22.3351" gradientUnits="userSpaceOnUse">
<stop offset="0.258" stop-color="#F97A12"/>
<stop offset="0.459" stop-color="#B07B58"/>
<stop offset="0.724" stop-color="#577BAE"/>
<stop offset="0.91" stop-color="#1E7CE5"/>
<stop offset="1" stop-color="#087CFA"/>
</linearGradient>
<linearGradient id="paint1_linear_131_148" x1="14.356" y1="13.8617" x2="44.2506" y2="30.4032" gradientUnits="userSpaceOnUse">
<stop stop-color="#F97A12"/>
<stop offset="0.072" stop-color="#CB7A3E"/>
<stop offset="0.154" stop-color="#9E7B6A"/>
<stop offset="0.242" stop-color="#757B91"/>
<stop offset="0.334" stop-color="#537BB1"/>
<stop offset="0.432" stop-color="#387CCC"/>
<stop offset="0.538" stop-color="#237CE0"/>
<stop offset="0.655" stop-color="#147CEF"/>
<stop offset="0.792" stop-color="#0B7CF7"/>
<stop offset="1" stop-color="#087CFA"/>
</linearGradient>
<linearGradient id="paint2_linear_131_148" x1="35.227" y1="23.9097" x2="26.9044" y2="-0.957793" gradientUnits="userSpaceOnUse">
<stop stop-color="#FE315D"/>
<stop offset="0.078" stop-color="#CB417E"/>
<stop offset="0.16" stop-color="#9E4E9B"/>
<stop offset="0.247" stop-color="#755BB4"/>
<stop offset="0.339" stop-color="#5365CA"/>
<stop offset="0.436" stop-color="#386DDB"/>
<stop offset="0.541" stop-color="#2374E9"/>
<stop offset="0.658" stop-color="#1478F3"/>
<stop offset="0.794" stop-color="#0B7BF8"/>
<stop offset="1" stop-color="#087CFA"/>
</linearGradient>
<linearGradient id="paint3_linear_131_148" x1="5.97257" y1="9.17781" x2="30.9348" y2="50.466" gradientUnits="userSpaceOnUse">
<stop stop-color="#FE315D"/>
<stop offset="0.04" stop-color="#F63462"/>
<stop offset="0.104" stop-color="#DF3A71"/>
<stop offset="0.167" stop-color="#C24383"/>
<stop offset="0.291" stop-color="#AD4A91"/>
<stop offset="0.55" stop-color="#755BB4"/>
<stop offset="0.917" stop-color="#1D76ED"/>
<stop offset="1" stop-color="#087CFA"/>
</linearGradient>
<clipPath id="clip0_131_148">
<rect width="39" height="39" fill="white"/>
</clipPath>
</defs>
</svg>
