<svg width="44" height="45" viewBox="0 0 44 45" fill="none" xmlns="http://www.w3.org/2000/svg">
<g clip-path="url(#clip0_76_241)">
<path d="M22.0675 11.9555C31.1262 4.92295 26.477 0.349609 26.477 0.349609C27.1689 7.61976 18.992 9.33637 16.8002 14.3322C15.3045 17.7412 17.8243 20.7262 22.0645 24.4883C21.6896 23.6551 21.1115 22.8454 20.5262 22.0257C18.5299 19.2301 16.4503 16.3177 22.0675 11.9555Z" fill="#E76F00"/>
<path d="M23.5137 26.0305C23.5137 26.0305 26.239 23.8317 24.0808 21.3881C16.7646 13.0984 32.0825 9.33637 32.0825 9.33637C22.7303 13.8418 24.1265 16.5161 26.4771 19.7648C28.9939 23.2485 23.5137 26.0305 23.5137 26.0305Z" fill="#E76F00"/>
<path d="M31.5384 32.5873C39.9332 28.2976 36.0518 24.1753 33.3426 24.7306C32.6786 24.8666 32.3825 24.9843 32.3825 24.9843C32.3825 24.9843 32.629 24.6046 33.0998 24.4402C38.4594 22.5873 42.5813 29.9051 31.3697 32.8035C31.3697 32.8036 31.4996 32.6894 31.5384 32.5873Z" fill="#5382A1"/>
<path d="M14.0704 27.1579C8.81804 26.4681 16.9502 24.5687 16.9502 24.5687C16.9502 24.5687 13.7922 24.3593 9.90814 26.2056C5.31544 28.3902 21.2686 29.3838 29.5267 27.248C30.3853 26.6715 31.572 26.1718 31.572 26.1718C31.572 26.1718 28.1926 26.7653 24.8271 27.0445C20.7091 27.3838 16.2882 27.4499 14.0704 27.1579Z" fill="#5382A1"/>
<path d="M16.0687 31.2538C13.1398 30.9559 15.0576 29.56 15.0576 29.56C7.4786 32.0336 19.2744 34.8387 29.8648 31.7935C28.7391 31.4032 28.0233 30.6895 28.0233 30.6895C22.8474 31.6695 19.8563 31.6381 16.0687 31.2538Z" fill="#5382A1"/>
<path d="M17.3449 35.6859C14.4182 35.3551 16.1281 34.3773 16.1281 34.3773C9.24816 36.2676 20.3128 40.1731 29.072 36.4815C27.6373 35.9329 26.61 35.2994 26.61 35.2994C22.7027 36.0267 20.8906 36.0837 17.3449 35.6859Z" fill="#5382A1"/>
<path d="M35.6656 37.9404C35.6656 37.9404 36.931 38.9657 34.2721 39.7588C29.2162 41.265 13.2288 41.7198 8.78754 39.8188C7.19103 39.1358 10.1849 38.188 11.1267 37.9892C12.1089 37.7797 12.6702 37.8187 12.6702 37.8187C10.8947 36.5888 1.19417 40.2338 7.74278 41.2777C25.6018 44.1257 40.298 39.9952 35.6656 37.9404Z" fill="#5382A1"/>
<path d="M38.5 40.1805C38.207 43.9298 25.8331 44.7185 17.7752 44.2112C12.5184 43.8798 11.4649 43.0513 11.4495 43.0392C16.4806 43.8549 24.963 44.0033 31.8406 42.7306C37.9367 41.6018 38.5 40.1805 38.5 40.1805Z" fill="#5382A1"/>
</g>
<defs>
<clipPath id="clip0_76_241">
<rect width="44" height="44" fill="white" transform="translate(0 0.349609)"/>
</clipPath>
</defs>
</svg>
