<svg width="44" height="43" viewBox="0 0 44 43" fill="none" xmlns="http://www.w3.org/2000/svg">
<rect x="2.75" y="2.6875" width="38.5" height="37.625" fill="#FFCA28"/>
<path d="M26.125 33.9801L28.9596 32.1471C29.1817 32.8291 30.5885 34.449 32.3654 34.449C34.1423 34.449 34.9673 33.5005 34.9673 32.8718C34.9673 31.1582 33.1529 30.5541 32.2814 30.2639C32.1393 30.2166 32.0223 30.1776 31.9423 30.1436C31.9013 30.1261 31.8392 30.1029 31.7596 30.0732C30.7903 29.7113 27.2144 28.3761 27.2144 24.506C27.2144 20.2431 31.424 19.7529 32.376 19.7529C32.9988 19.7529 35.9933 19.8275 37.4846 22.5664L34.7346 24.442C34.1317 23.2484 33.1301 22.8541 32.5135 22.8541C30.9904 22.8541 30.6731 23.9454 30.6731 24.442C30.6731 25.8358 32.3278 26.4605 33.7251 26.988C34.0906 27.126 34.4386 27.2573 34.7346 27.394C36.2577 28.0974 38.5 29.2483 38.5 32.8718C38.5 34.6866 36.9424 37.6248 33.0212 37.6248C27.7538 37.6248 26.3577 34.5343 26.125 33.9801Z" fill="#3E3E3E"/>
<path d="M12.375 34.3441L15.3294 32.512C15.5609 33.1937 16.4605 34.4506 17.7657 34.4506C19.071 34.4506 19.739 33.1405 19.739 32.512V20.1561H23.3725V32.512C23.4313 34.2163 22.4641 37.6248 18.1957 37.6248C14.2711 37.6248 12.6396 35.3454 12.375 34.3441Z" fill="#3E3E3E"/>
</svg>
