<svg width="25" height="32" viewBox="0 0 25 32" fill="none" xmlns="http://www.w3.org/2000/svg">
<path d="M0.626953 31.2624L3.36038 30.579V1.42104L0.626953 0.737648V0.0542603H25V8.25493H23.6333C23.0562 7.79934 22.5551 7.22225 22.1299 6.52368C21.158 4.88354 20.6721 3.10673 20.6721 1.19324H10.8773V15.5444L7.46051 16.419C7.67311 15.2648 8.06794 14.1866 8.64499 13.1843C8.88797 12.7287 9.17651 12.2883 9.51059 11.8631H10.8773V22.1139H9.51059C9.17651 21.6887 8.88797 21.2483 8.64499 20.7927C8.06794 19.7904 7.67311 18.7122 7.46051 17.558L10.8773 16.6834V30.579L13.6107 31.2624V31.9458H0.626953V31.2624Z" fill="white"/>
<circle cx="17.4409" cy="16.3718" r="4.17233" fill="white"/>
</svg>
