<svg width="44" height="44" viewBox="0 0 44 44" fill="none" xmlns="http://www.w3.org/2000/svg">
<path d="M2.75 16.6833C2.75 11.8062 2.75 9.36765 3.69915 7.50483C4.53405 5.86625 5.86625 4.53405 7.50483 3.69915C9.36765 2.75 11.8062 2.75 16.6833 2.75H27.3167C32.1938 2.75 34.6324 2.75 36.4952 3.69915C38.1337 4.53405 39.466 5.86625 40.3008 7.50483C41.25 9.36765 41.25 11.8062 41.25 16.6833V27.3167C41.25 32.1938 41.25 34.6324 40.3008 36.4952C39.466 38.1337 38.1337 39.466 36.4952 40.3008C34.6324 41.25 32.1938 41.25 27.3167 41.25H16.6833C11.8062 41.25 9.36765 41.25 7.50483 40.3008C5.86625 39.466 4.53405 38.1337 3.69915 36.4952C2.75 34.6324 2.75 32.1938 2.75 27.3167V16.6833Z" fill="#001E36"/>
<path d="M11 30.9598V14.0297C11 13.9145 11.0481 13.8487 11.1604 13.8487C12.8182 13.8487 14.4751 13.75 16.1333 13.75C18.824 13.75 21.7374 14.67 22.7585 17.4848C22.9992 18.1759 23.1275 18.8833 23.1275 19.6237C23.1275 21.0387 22.8067 22.2068 22.165 23.1282C20.3726 25.702 17.2659 25.662 14.481 25.662V30.9434C14.5028 31.0997 14.3696 31.1737 14.2404 31.1737H11.1925C11.0642 31.1737 11 31.1079 11 30.9598ZM14.4971 17.0241V22.5524C15.6013 22.6332 16.7568 22.642 17.8177 22.2891C18.989 21.9512 19.6304 20.9373 19.6304 19.7224C19.663 18.6872 19.0989 17.6939 18.1385 17.3203C17.0904 16.8845 15.6285 16.8584 14.4971 17.0241Z" fill="#31A8FF"/>
<path d="M33.1329 21.4601C32.6475 21.2043 32.1306 21.0172 31.5962 20.9039C30.9095 20.7423 28.201 20.1763 28.1999 21.5926C28.224 22.3833 29.479 22.7706 30.0336 22.9965C31.9804 23.6649 34.1834 24.8596 34.1401 27.2613C34.1997 30.2511 31.3029 31.4463 28.8198 31.4466C27.527 31.46 26.1804 31.2598 24.9973 30.7049C24.8844 30.6451 24.8117 30.5173 24.8165 30.387V27.5262C24.8038 27.4115 24.9269 27.3112 25.0232 27.3937C26.1823 28.0948 27.5563 28.4351 28.8972 28.4533C29.4892 28.4533 30.6624 28.3959 30.6535 27.5262C30.6535 26.6915 29.25 26.3078 28.6906 26.0957C27.8796 25.8062 27.1107 25.4053 26.4049 24.9037C25.4185 24.2001 24.7997 23.0721 24.8166 21.831C24.8108 19.0158 27.4773 17.7522 29.8787 17.7516C31.0013 17.7424 32.2068 17.8255 33.2519 18.2814C33.4022 18.3256 33.4333 18.4839 33.4327 18.6258V21.3012C33.4422 21.4673 33.2578 21.5238 33.1329 21.4601Z" fill="#31A8FF"/>
</svg>
