<svg width="44" height="43" viewBox="0 0 44 43" fill="none" xmlns="http://www.w3.org/2000/svg">
<path d="M25.6835 21.4676C25.6835 19.5401 24.0344 17.9774 22 17.9774C19.9658 17.9774 18.3165 19.5401 18.3165 21.4676C18.3165 23.3953 19.9658 24.958 22 24.958C24.0344 24.958 25.6835 23.3953 25.6835 21.4676Z" fill="#53C1DE"/>
<path fill-rule="evenodd" clip-rule="evenodd" d="M33.963 14.9878C34.7409 11.9927 35.7187 6.43855 32.2718 4.55553C28.8411 2.68071 24.3766 6.2732 22.0192 8.42959C19.6686 6.29469 15.0787 2.71755 11.6347 4.60656C8.20532 6.48766 9.26288 11.9497 10.058 14.9636C6.85893 15.8245 1.375 17.6789 1.375 21.4676C1.375 25.2456 6.85322 27.2631 10.0333 28.1232C9.23529 31.1538 8.23069 36.5378 11.6645 38.4147C15.1213 40.3033 19.6969 36.8114 22.0761 34.6314C24.4487 36.8004 28.8703 40.3153 32.3017 38.4332C35.744 36.545 34.8474 31.0653 34.0523 28.0339C37.135 27.172 42.625 25.1984 42.625 21.4676C42.625 17.7153 37.1117 15.8459 33.963 14.9878ZM33.5723 26.4275C33.0502 24.8615 32.3455 23.1962 31.4835 21.4759C32.3063 19.7963 32.9836 18.1525 33.4911 16.5965C35.7993 17.2306 40.8629 18.6799 40.8629 21.4676C40.8629 24.2815 36.0039 25.7445 33.5723 26.4275ZM31.4187 36.9881C28.8586 38.3923 25.0554 35.0311 23.3033 33.4337C24.4656 32.2291 25.6272 30.8286 26.7609 29.2735C28.7552 29.1059 30.6392 28.8317 32.3477 28.4576C32.9074 30.6018 33.9903 35.5775 31.4187 36.9881ZM12.545 36.968C9.98446 35.5691 11.1548 30.7647 11.7419 28.5323C13.4315 28.8864 15.3018 29.1412 17.3008 29.2948C18.442 30.8165 19.6372 32.2152 20.8417 33.4401C19.3535 34.8041 15.1175 38.3735 12.545 36.968ZM3.13705 21.4676C3.13705 18.6431 8.17034 17.2045 10.5312 16.5719C11.0475 18.1628 11.7246 19.8262 12.5417 21.5083C11.714 23.2154 11.0272 24.9053 10.5062 26.5148C8.25508 25.9043 3.13705 24.2938 3.13705 21.4676ZM12.5176 6.05163C15.0886 4.64153 19.0777 8.0757 20.7843 9.62142C19.586 10.8408 18.4018 12.2289 17.2705 13.7418C15.3304 13.9122 13.4733 14.1858 11.766 14.5524C11.1255 12.1216 9.94938 7.46021 12.5176 6.05163ZM28.0215 15.5567C29.3377 15.7141 30.5986 15.9234 31.7827 16.1796C31.4273 17.2592 30.9842 18.3881 30.4625 19.5453C29.706 18.1853 28.8941 16.8528 28.0215 15.5567ZM22.0197 10.8146C22.8325 11.6489 23.6465 12.5806 24.4472 13.5913C22.823 13.5186 21.196 13.5182 19.5718 13.5903C20.3732 12.5889 21.1942 11.6586 22.0197 10.8146ZM13.5527 19.5441C13.0395 18.3908 12.6005 17.2569 12.2419 16.162C13.4189 15.9124 14.674 15.7084 15.9816 15.5536C15.1066 16.8468 14.296 18.1789 13.5527 19.5441ZM16.0192 27.5008C14.6683 27.3579 13.3942 27.1644 12.2176 26.9217C12.5819 25.8073 13.0306 24.6491 13.5547 23.4711C14.3083 24.8503 15.1312 26.1954 16.0192 27.5008ZM22.0685 32.2386C21.2333 31.3846 20.4002 30.4401 19.5866 29.4242C21.2201 29.485 22.8568 29.4851 24.4901 29.4161C23.6868 30.4505 22.8757 31.3963 22.0685 32.2386ZM30.4793 23.4111C31.0306 24.6018 31.4954 25.7539 31.8645 26.8494C30.6684 27.108 29.3772 27.3162 28.0166 27.4709C28.8957 26.1504 29.7204 24.797 30.4793 23.4111ZM25.7775 27.6733C23.2789 27.8424 20.7646 27.8406 18.2652 27.6871C16.845 25.7213 15.5807 23.654 14.4894 21.5078C15.5754 19.366 16.8305 17.3027 18.2441 15.34C20.7454 15.1608 23.262 15.1604 25.7632 15.341C27.1646 17.3036 28.4178 19.3615 29.529 21.4841C28.431 23.6248 27.1694 25.6922 25.7775 27.6733ZM31.3917 6.00199C33.9633 7.40747 32.8186 12.3991 32.2568 14.5697C30.5455 14.1955 28.6871 13.917 26.7414 13.7441C25.6079 12.2147 24.4335 10.8242 23.2545 9.62056C24.9831 8.04155 28.8449 4.61026 31.3917 6.00199Z" fill="#53C1DE"/>
</svg>
