<svg width="44" height="44" viewBox="0 0 44 44" fill="none" xmlns="http://www.w3.org/2000/svg">
<path fill-rule="evenodd" clip-rule="evenodd" d="M11.15 6.58649L22 5.5L32.8499 6.58649L41.2499 17.2673L22 38.4999L2.75 17.2673L11.15 6.58649Z" fill="#FDB300"/>
<path d="M10.5471 17.2676L21.9999 38.5003L2.75 17.2676H10.5471ZM33.4529 17.2676L22.0001 38.5003L41.25 17.2676" fill="#EA6C00"/>
<path fill-rule="evenodd" clip-rule="evenodd" d="M10.5469 17.2676H33.4524L21.9996 38.5003" fill="#FDAD00"/>
<path d="M21.9996 5.5L11.1497 6.58631L10.5469 17.2671L21.9996 5.5ZM21.9998 5.5L32.8498 6.58631L33.4526 17.2671" fill="#FDD231"/>
<path d="M41.25 17.2668L32.8501 6.58594L33.4529 17.2668H41.25ZM2.75 17.2668L11.1499 6.58594L10.5471 17.2668" fill="#FDAD00"/>
<path fill-rule="evenodd" clip-rule="evenodd" d="M21.9996 5.5L10.5469 17.2671H33.4524" fill="#FEEEB7"/>
</svg>
