<svg width="41" height="41" viewBox="0 0 41 41" fill="none" xmlns="http://www.w3.org/2000/svg">
<path d="M37.2873 2.16802C36.7136 3.54516 35.979 4.84945 35.0989 6.05367C33.1776 4.12228 30.892 2.59251 28.3748 1.55331C25.8577 0.5141 23.1593 -0.0138083 20.4366 0.000274508C17.7139 0.0143573 15.0211 0.57015 12.5148 1.63534C10.0086 2.70053 7.73883 4.25386 5.83759 6.20502C3.93635 8.15618 2.44153 10.4662 1.44006 13.0009C0.438583 15.5355 -0.0495725 18.2442 0.00397305 20.9694C0.0575186 23.6946 0.651697 26.382 1.75196 28.8752C2.85223 31.3685 4.43663 33.6179 6.41304 35.4927L7.17218 36.1636C10.0691 38.6072 13.5848 40.201 17.3304 40.7685C21.0759 41.336 24.9053 40.8552 28.3948 39.3793C31.8844 37.9034 34.898 35.4899 37.1024 32.4058C39.3069 29.3217 40.6161 25.6872 40.8852 21.9045C41.4453 16.6694 39.9097 10.0438 37.288 2.16866L37.2873 2.16802ZM9.33501 35.6119C9.11641 35.8823 8.82261 36.0817 8.49078 36.1849C8.15895 36.2881 7.80399 36.2904 7.47083 36.1916C7.13767 36.0928 6.84127 35.8973 6.61913 35.6298C6.39699 35.3623 6.2591 35.0349 6.2229 34.6889C6.1867 34.343 6.25382 33.9941 6.41577 33.6863C6.57772 33.3785 6.82722 33.1258 7.1327 32.96C7.43818 32.7942 7.78591 32.7229 8.1319 32.755C8.47789 32.7871 8.80659 32.9213 9.07642 33.1404C9.43783 33.434 9.66806 33.8592 9.71655 34.3226C9.76503 34.786 9.62781 35.2497 9.33501 35.6119ZM37.2028 29.4541C32.1334 36.2142 21.3096 33.9331 14.3699 34.2612C14.3699 34.2612 13.1396 34.3336 11.9011 34.5367C11.9011 34.5367 12.3683 34.3381 12.9655 34.1119C17.8391 32.4138 20.1428 32.087 23.1031 30.562C28.677 27.7253 34.1906 21.513 35.3363 15.0553C33.2158 21.2676 26.7766 26.6097 20.9153 28.7793C16.8982 30.2615 9.64097 31.7051 9.64097 31.7051L9.34845 31.5481C4.41087 29.1452 4.25853 18.4398 13.2382 14.9873C17.1702 13.4713 20.932 14.3036 25.1783 13.2893C29.7126 12.2109 34.9587 8.81028 37.0934 4.37228C39.4809 11.4721 42.3574 22.5843 37.1996 29.4586L37.2028 29.4541Z" fill="#68BD45"/>
</svg>
